<?xml version="1.0" encoding="UTF-8"?>
<!-- Generator: visioncortex VTracer 0.6.3 -->
<svg version="1.1" xmlns="http://www.w3.org/2000/svg" width="1280" height="720">
<path d="M0 0 C422.4 0 844.8 0 1280 0 C1280 237.6 1280 475.2 1280 720 C857.6 720 435.2 720 0 720 C0 482.4 0 244.8 0 0 Z " fill="transparent" transform="translate(0,0)"/>
<path d="M0 0 C1.03 0 2.06 0.01 3.12 0.01 C4.75 0.02 4.75 0.02 6.4 0.04 C8.03 0.04 8.03 0.04 9.7 0.05 C12.39 0.06 15.08 0.08 17.77 0.1 C20.43 5.89 22.81 11.71 24.92 17.72 C25.2 18.53 25.49 19.34 25.79 20.17 C26.4 21.91 27.02 23.65 27.63 25.39 C29.27 30.05 30.93 34.7 32.59 39.35 C33.1 40.79 33.1 40.79 33.62 42.26 C37.08 51.97 40.57 61.68 44.09 71.37 C44.75 73.18 45.41 75 46.07 76.82 C46.98 79.35 47.9 81.88 48.82 84.41 C49.09 85.16 49.36 85.92 49.64 86.69 C51.12 90.75 51.12 90.75 53.77 94.1 C53.77 92.95 53.76 91.8 53.76 90.62 C53.72 79.82 53.69 69.02 53.67 58.22 C53.66 52.66 53.65 47.11 53.62 41.56 C53.6 36.2 53.59 30.84 53.58 25.49 C53.58 23.44 53.57 21.39 53.56 19.35 C53.55 16.49 53.55 13.63 53.55 10.77 C53.54 9.92 53.53 9.06 53.52 8.18 C53.55 2.33 53.55 2.33 55.77 0.1 C58.19 -0.15 58.19 -0.15 61.18 -0.13 C62.26 -0.13 63.33 -0.13 64.43 -0.13 C65.56 -0.11 66.68 -0.1 67.84 -0.09 C69.53 -0.09 69.53 -0.09 71.25 -0.09 C79.63 -0.04 79.63 -0.04 80.77 1.1 C80.87 3.21 80.9 5.33 80.89 7.44 C80.89 8.11 80.9 8.79 80.9 9.48 C80.9 11.74 80.89 14 80.89 16.27 C80.89 17.88 80.89 19.5 80.89 21.11 C80.89 25.51 80.88 29.91 80.87 34.32 C80.87 38.91 80.87 43.5 80.87 48.1 C80.86 56.8 80.86 65.51 80.85 74.21 C80.83 84.12 80.83 94.03 80.82 103.94 C80.81 124.32 80.8 144.71 80.77 165.1 C77.73 165.42 74.69 165.75 71.65 166.07 C70.79 166.16 69.94 166.25 69.05 166.35 C54.39 167.9 54.39 167.9 51.77 167.1 C49.57 163.84 48.1 160.61 46.83 156.89 C46.48 155.88 46.13 154.86 45.77 153.81 C45.4 152.72 45.02 151.62 44.64 150.49 C44.24 149.34 43.85 148.19 43.44 147 C42.17 143.31 40.91 139.61 39.65 135.91 C38.82 133.5 38 131.1 37.17 128.69 C35.98 125.23 34.8 121.76 33.61 118.3 C29.37 105.89 25.07 93.5 20.77 81.1 C20.44 111.13 20.11 141.16 19.77 172.1 C-2.23 175.1 -2.23 175.1 -6.23 175.1 C-7.69 172.17 -7.35 169.6 -7.35 166.33 C-7.35 165.62 -7.35 164.92 -7.35 164.19 C-7.35 161.82 -7.35 159.45 -7.34 157.08 C-7.34 155.39 -7.34 153.69 -7.34 152 C-7.34 147.39 -7.33 142.77 -7.33 138.16 C-7.32 133.35 -7.32 128.53 -7.32 123.72 C-7.32 114.59 -7.31 105.47 -7.3 96.35 C-7.29 85.96 -7.28 75.58 -7.28 65.19 C-7.27 43.83 -7.25 22.46 -7.23 1.1 C-4.67 -0.18 -2.86 -0.02 0 0 Z " fill="#E00C11" transform="translate(324.2265625,270.90234375)"/>
<path d="M0 0 C1.17 0 2.33 0.01 3.54 0.01 C4.76 0.02 5.98 0.03 7.24 0.04 C8.47 0.04 9.7 0.04 10.97 0.05 C14.02 0.06 17.07 0.08 20.12 0.1 C24.78 8.91 28.49 17.89 31.93 27.22 C32.66 29.19 33.4 31.16 34.13 33.12 C34.79 34.88 35.44 36.64 36.09 38.4 C37.03 41.02 37.03 41.02 38.12 43.1 C38.78 43.1 39.44 43.1 40.12 43.1 C42 38.91 43.87 34.72 45.74 30.54 C46.02 29.92 46.29 29.3 46.58 28.67 C50.28 20.37 53.84 12.04 57.03 3.53 C58.12 1.1 58.12 1.1 60.12 0.1 C62.05 0 63.99 -0.03 65.93 -0.04 C67.09 -0.04 68.24 -0.04 69.44 -0.04 C70.65 -0.04 71.87 -0.03 73.12 -0.03 C74.94 -0.03 74.94 -0.03 76.8 -0.04 C78.53 -0.04 78.53 -0.04 80.3 -0.04 C81.37 -0.03 82.44 -0.03 83.54 -0.03 C86.12 0.1 86.12 0.1 88.12 1.1 C87.48 4.92 86.36 8.18 84.82 11.73 C84.1 13.38 84.1 13.38 83.37 15.07 C82.6 16.85 82.6 16.85 81.8 18.66 C81.26 19.91 80.72 21.16 80.18 22.4 C79.06 25 77.93 27.6 76.81 30.2 C75.18 33.94 73.57 37.68 71.97 41.43 C71.46 42.61 70.96 43.79 70.44 45.01 C69.44 47.35 68.44 49.7 67.44 52.04 C65.13 57.47 62.78 62.87 60.26 68.21 C59.82 69.15 59.38 70.1 58.93 71.08 C58.13 72.82 57.3 74.55 56.44 76.27 C54.46 80.53 54.46 80.53 54.51 85.13 C54.77 85.81 55.02 86.5 55.29 87.21 C55.57 87.99 55.86 88.78 56.16 89.59 C56.47 90.42 56.79 91.24 57.12 92.1 C57.42 92.93 57.73 93.76 58.05 94.61 C59.06 97.36 60.1 100.09 61.14 102.82 C61.53 103.84 61.92 104.85 62.31 105.9 C63.56 109.17 64.81 112.45 66.05 115.72 C66.91 117.97 67.77 120.23 68.62 122.48 C72.4 132.4 76.19 142.32 80.04 152.21 C80.33 152.95 80.61 153.69 80.91 154.45 C82.2 157.78 83.51 161.11 84.81 164.44 C85.26 165.57 85.7 166.71 86.16 167.88 C86.54 168.85 86.92 169.82 87.32 170.82 C88.12 173.1 88.12 173.1 88.12 175.1 C84.44 174.86 80.78 174.49 77.12 174.1 C76.35 174.02 75.59 173.94 74.8 173.85 C72.25 173.57 69.72 173.24 67.18 172.91 C66.35 172.82 65.52 172.73 64.67 172.64 C60.47 172.05 58.66 171.69 55.73 168.47 C53.99 164.83 52.55 161.18 51.3 157.35 C50.79 155.84 50.28 154.34 49.77 152.84 C49.5 152.06 49.23 151.29 48.96 150.49 C47.54 146.45 45.99 142.46 44.43 138.47 C44.14 137.74 43.86 137.01 43.57 136.25 C41.83 131.83 40.01 127.45 38.12 123.1 C35.08 126.67 33.42 130.72 31.65 135 C31.17 136.15 31.17 136.15 30.67 137.31 C29.65 139.74 28.63 142.17 27.62 144.6 C26.28 147.8 24.94 151 23.59 154.19 C23.28 154.92 22.98 155.66 22.67 156.41 C19.67 163.51 19.67 163.51 17.12 166.1 C14.42 166.26 12.21 166.2 9.55 165.91 C8.49 165.82 8.49 165.82 7.4 165.72 C5.3 165.53 3.21 165.32 1.12 165.1 C0.04 165 -1.05 164.9 -2.16 164.79 C-4.4 164.58 -6.64 164.35 -8.88 164.1 C-10.37 159.5 -8.65 156.45 -6.76 152.22 C-6.41 151.42 -6.06 150.61 -5.7 149.78 C-4.89 147.94 -4.09 146.1 -3.28 144.26 C-0.85 138.75 1.55 133.22 3.95 127.69 C4.78 125.77 5.62 123.86 6.46 121.95 C9.49 115 12.33 108.01 15.01 100.92 C16.75 96.48 18.9 92.31 21.08 88.07 C23.26 81.83 20.1 76.01 17.8 70.16 C17.46 69.26 17.11 68.37 16.75 67.44 C15.98 65.44 15.2 63.43 14.42 61.43 C13.01 57.83 11.62 54.23 10.23 50.63 C4.34 35.35 4.34 35.35 -1.65 20.11 C-2.28 18.51 -2.28 18.51 -2.93 16.88 C-3.71 14.91 -4.5 12.94 -5.29 10.96 C-5.64 10.1 -5.98 9.23 -6.34 8.33 C-6.64 7.58 -6.94 6.83 -7.25 6.06 C-7.88 4.1 -7.88 4.1 -7.88 1.1 C-5.17 -0.26 -3.03 -0.01 0 0 Z " fill="#E00C11" transform="translate(876.8828125,270.90234375)"/>
<path d="M0 0 C1.05 -0 1.05 -0 2.12 -0.01 C4.45 -0.01 6.77 -0.01 9.09 -0 C10.7 -0 12.31 -0.01 13.92 -0.01 C17.29 -0.01 20.66 -0.01 24.04 -0 C28.37 0 32.7 0 37.04 -0 C40.36 -0.01 43.68 -0.01 47.01 -0 C48.6 -0 50.2 -0 51.8 -0.01 C54.03 -0.01 56.26 -0.01 58.49 0 C60.39 0 60.39 0 62.34 0 C65.18 0.13 65.18 0.13 66.18 1.13 C66.34 3.13 66.43 5.13 66.5 7.13 C66.53 8.23 66.57 9.32 66.61 10.45 C66.68 12.55 66.68 12.55 66.74 14.69 C66.96 21.34 66.96 21.34 67.18 28.13 C51.34 28.13 35.5 28.13 19.18 28.13 C19.18 39.68 19.18 51.23 19.18 63.13 C30.73 63.46 42.28 63.79 54.18 64.13 C55.51 66.79 55.29 68.82 55.28 71.79 C55.27 72.8 55.27 73.81 55.27 74.85 C55.26 76.14 55.25 77.43 55.24 78.75 C55.22 82.84 55.2 86.92 55.18 91.13 C43.3 91.46 31.42 91.79 19.18 92.13 C19.18 105 19.18 117.87 19.18 131.13 C29.49 131.13 29.49 131.13 39.75 130.66 C41.26 130.56 42.77 130.47 44.27 130.37 C46.59 130.22 48.92 130.06 51.24 129.91 C53.51 129.76 55.79 129.61 58.07 129.47 C58.77 129.42 59.47 129.37 60.19 129.32 C61.85 129.22 63.52 129.17 65.18 129.13 C66.18 130.13 66.18 130.13 66.29 132.63 C66.29 134.26 66.29 134.26 66.28 135.91 C66.27 137.67 66.27 137.67 66.27 139.46 C66.25 141.31 66.25 141.31 66.24 143.19 C66.24 144.43 66.23 145.66 66.23 146.94 C66.22 150 66.2 153.06 66.18 156.13 C61.47 157.25 56.76 157.51 51.95 157.81 C51.04 157.87 50.14 157.93 49.21 157.99 C47.28 158.12 45.35 158.25 43.42 158.37 C38.43 158.7 33.45 159.03 28.46 159.36 C26.99 159.46 26.99 159.46 25.5 159.56 C14.38 160.31 3.28 161.19 -7.82 162.13 C-9.23 159.32 -8.94 157 -8.94 153.85 C-8.94 153.2 -8.94 152.55 -8.94 151.88 C-8.95 149.69 -8.94 147.5 -8.93 145.31 C-8.93 143.74 -8.93 142.17 -8.93 140.61 C-8.93 136.34 -8.93 132.08 -8.92 127.82 C-8.92 123.37 -8.92 118.92 -8.91 114.47 C-8.91 106.03 -8.9 97.6 -8.89 89.17 C-8.88 79.57 -8.88 69.97 -8.87 60.37 C-8.86 40.63 -8.84 20.88 -8.82 1.13 C-5.88 -0.34 -3.28 0 0 0 Z " fill="#E00C11" transform="translate(440.820556640625,270.87060546875)"/>
<path d="M0 0 C1.29 0 2.58 0 3.91 0 C4.97 0 4.97 0 6.06 -0 C8.42 -0.01 10.77 0.01 13.12 0.02 C14.76 0.02 16.39 0.02 18.02 0.02 C21.44 0.02 24.86 0.03 28.28 0.04 C32.67 0.06 37.07 0.06 41.46 0.06 C44.83 0.06 48.2 0.07 51.57 0.07 C53.19 0.08 54.81 0.08 56.43 0.08 C58.69 0.08 60.95 0.09 63.21 0.1 C65.14 0.11 65.14 0.11 67.12 0.11 C69.99 0.25 69.99 0.25 70.99 1.25 C71.15 3.25 71.25 5.25 71.31 7.25 C71.35 8.34 71.39 9.44 71.43 10.57 C71.49 12.67 71.49 12.67 71.56 14.81 C71.77 21.46 71.77 21.46 71.99 28.25 C55.82 28.25 39.65 28.25 22.99 28.25 C22.99 39.47 22.99 50.69 22.99 62.25 C25.51 62.31 28.02 62.37 30.62 62.43 C33.04 62.49 35.47 62.56 37.89 62.62 C39.58 62.66 41.28 62.7 42.97 62.74 C45.39 62.8 47.82 62.87 50.24 62.93 C51.38 62.96 51.38 62.96 52.55 62.98 C57.88 63.13 57.88 63.13 58.99 64.25 C59.08 66.17 59.1 68.1 59.09 70.03 C59.09 71.79 59.09 71.79 59.08 73.58 C59.07 75.42 59.07 75.42 59.06 77.31 C59.05 78.55 59.05 79.78 59.04 81.05 C59.03 84.12 59.02 87.18 58.99 90.25 C57.41 90.28 57.41 90.28 55.8 90.32 C51.9 90.42 48 90.52 44.1 90.62 C42.41 90.66 40.71 90.7 39.02 90.74 C36.6 90.8 34.17 90.87 31.75 90.93 C30.99 90.95 30.23 90.96 29.44 90.98 C25.92 90.77 25.92 90.77 22.99 92.25 C22.87 94.15 22.82 96.05 22.79 97.96 C22.77 99.18 22.75 100.4 22.73 101.66 C22.71 103 22.7 104.35 22.68 105.69 C22.66 107.05 22.64 108.42 22.62 109.79 C22.56 113.39 22.51 116.99 22.46 120.59 C22.41 124.27 22.36 127.94 22.3 131.61 C22.19 138.82 22.09 146.04 21.99 153.25 C17.68 153.11 13.37 152.96 9.06 152.81 C7.83 152.77 6.59 152.73 5.32 152.69 C3.57 152.63 3.57 152.63 1.78 152.56 C0.15 152.51 0.15 152.51 -1.5 152.45 C-4.01 152.25 -4.01 152.25 -5.01 151.25 C-5.11 149.33 -5.14 147.41 -5.14 145.48 C-5.14 144.23 -5.15 142.98 -5.15 141.69 C-5.15 140.29 -5.15 138.89 -5.15 137.49 C-5.15 136.02 -5.16 134.56 -5.16 133.09 C-5.17 129.1 -5.17 125.11 -5.17 121.12 C-5.17 117.8 -5.18 114.47 -5.18 111.15 C-5.19 103.31 -5.19 95.46 -5.19 87.62 C-5.19 79.52 -5.2 71.42 -5.22 63.32 C-5.23 56.37 -5.23 49.43 -5.23 42.48 C-5.23 38.33 -5.24 34.18 -5.25 30.02 C-5.26 26.12 -5.26 22.21 -5.25 18.31 C-5.25 16.87 -5.25 15.44 -5.26 14 C-5.26 12.05 -5.26 10.09 -5.25 8.14 C-5.25 7.04 -5.25 5.95 -5.25 4.82 C-4.88 0.94 -3.82 0.31 0 0 Z " fill="#E10D12" transform="translate(632.0051422119141,270.7527618408203)"/>
<path d="M0 0 C1.12 0.01 1.12 0.01 2.26 0.01 C3.05 0.01 3.84 0.01 4.65 0 C7.26 -0.01 9.87 -0 12.48 0.01 C14.29 0 16.09 0 17.9 -0 C21.69 -0 25.49 0 29.28 0.01 C34.15 0.02 39.02 0.02 43.89 0 C47.62 -0 51.36 -0 55.09 0 C56.89 0 58.69 0 60.48 -0 C62.99 -0.01 65.5 0 68 0.01 C68.75 0.01 69.5 0 70.27 0 C75.4 0.04 75.4 0.04 77.63 2.27 C77.88 4.78 77.88 4.78 77.86 7.9 C77.86 9.02 77.86 10.13 77.86 11.28 C77.85 12.46 77.83 13.63 77.82 14.83 C77.82 16.6 77.82 16.6 77.82 18.39 C77.77 27.13 77.77 27.13 76.63 28.27 C67.72 28.27 58.81 28.27 49.63 28.27 C49.3 69.52 48.97 110.77 48.63 153.27 C29.18 154.66 29.18 154.66 22.63 154.27 C20.99 152.63 21.49 150.75 21.48 148.49 C21.47 147.45 21.46 146.42 21.46 145.35 C21.45 144.21 21.45 143.06 21.44 141.88 C21.44 140.68 21.43 139.49 21.42 138.25 C21.4 135.64 21.39 133.03 21.37 130.42 C21.35 126.29 21.32 122.17 21.3 118.04 C21.23 108.54 21.18 99.04 21.12 89.53 C21.07 80.83 21.02 72.12 20.96 63.42 C20.93 59.31 20.9 55.21 20.88 51.1 C20.87 47.95 20.84 44.81 20.82 41.66 C20.82 40.51 20.81 39.37 20.81 38.19 C20.8 37.16 20.79 36.12 20.78 35.05 C20.78 34.15 20.77 33.24 20.77 32.31 C20.86 30.28 20.86 30.28 19.63 29.27 C17.8 29.14 15.97 29.07 14.14 29.02 C13.02 28.99 11.91 28.96 10.76 28.93 C8.39 28.86 6.02 28.81 3.65 28.75 C2.53 28.72 1.41 28.69 0.26 28.65 C-1.28 28.61 -1.28 28.61 -2.86 28.57 C-5.37 28.27 -5.37 28.27 -7.37 26.27 C-7.63 23.87 -7.63 23.87 -7.63 20.9 C-7.64 19.83 -7.64 18.76 -7.64 17.66 C-7.63 15.98 -7.63 15.98 -7.62 14.27 C-7.62 13.15 -7.63 12.03 -7.64 10.88 C-7.64 9.81 -7.64 8.75 -7.63 7.65 C-7.63 6.66 -7.63 5.68 -7.63 4.67 C-7.1 -0.21 -4.25 0.04 0 0 Z " fill="#E00C11" transform="translate(532.3669891357422,270.72894287109375)"/>
<path d="M0 0 C1.48 0.01 1.48 0.01 3 0.01 C4.07 0.01 5.14 0.02 6.24 0.02 C7.37 0.03 8.49 0.04 9.65 0.06 C11.34 0.06 11.34 0.06 13.06 0.06 C21.45 0.1 21.45 0.1 22.59 1.24 C22.68 2.88 22.71 4.51 22.71 6.15 C22.71 7.21 22.71 8.27 22.71 9.36 C22.71 10.54 22.7 11.71 22.7 12.92 C22.7 14.15 22.7 15.38 22.7 16.65 C22.7 20.03 22.69 23.41 22.69 26.79 C22.68 30.32 22.68 33.84 22.68 37.37 C22.68 44.06 22.67 50.75 22.66 57.43 C22.65 65.04 22.64 72.65 22.64 80.26 C22.63 95.92 22.61 111.58 22.59 127.24 C23.16 127.28 23.73 127.31 24.33 127.34 C30.28 127.69 36.23 128.05 42.18 128.41 C44.41 128.55 46.63 128.68 48.86 128.81 C52.05 128.99 55.24 129.19 58.43 129.39 C59.43 129.45 60.43 129.5 61.46 129.56 C62.38 129.62 63.3 129.68 64.25 129.74 C65.47 129.81 65.47 129.81 66.72 129.89 C67.64 130.06 67.64 130.06 68.59 130.24 C69.92 132.9 69.7 134.93 69.68 137.91 C69.68 139.59 69.68 139.59 69.67 141.31 C69.66 143.07 69.66 143.07 69.65 144.87 C69.64 146.05 69.64 147.23 69.63 148.45 C69.62 151.38 69.61 154.31 69.59 157.24 C56.1 157.55 42.67 156.74 29.21 156.02 C26.56 155.87 23.91 155.73 21.27 155.6 C17.42 155.4 13.57 155.2 9.72 155 C8.53 154.94 7.34 154.88 6.12 154.81 C5.03 154.75 3.93 154.69 2.81 154.63 C1.84 154.58 0.88 154.53 -0.11 154.48 C-2.41 154.24 -2.41 154.24 -4.41 153.24 C-4.46 133.59 -4.5 113.94 -4.52 94.28 C-4.53 85.16 -4.54 76.03 -4.57 66.91 C-4.59 58.96 -4.6 51.01 -4.6 43.06 C-4.61 38.84 -4.61 34.63 -4.63 30.42 C-4.64 26.46 -4.64 22.5 -4.64 18.54 C-4.64 17.08 -4.65 15.62 -4.65 14.17 C-4.66 12.18 -4.66 10.2 -4.65 8.22 C-4.66 7.1 -4.66 5.99 -4.66 4.85 C-4.33 1.36 -3.52 0.35 0 0 Z " fill="#E10D12" transform="translate(725.414306640625,270.757080078125)"/>
<path d="M0 0 C1.07 -0 2.14 -0 3.25 -0 C4.37 -0 5.49 0 6.65 0.01 C7.78 0 8.91 0 10.07 -0 C11.14 -0 12.21 -0 13.31 0 C14.79 0 14.79 0 16.3 0 C18.59 0.13 18.59 0.13 19.59 1.13 C19.69 3.2 19.71 5.26 19.71 7.33 C19.71 7.98 19.71 8.64 19.71 9.31 C19.71 11.52 19.71 13.73 19.7 15.93 C19.7 17.51 19.7 19.09 19.7 20.66 C19.7 24.96 19.7 29.25 19.69 33.54 C19.69 38.02 19.68 42.51 19.68 46.99 C19.68 55.48 19.67 63.97 19.66 72.47 C19.65 82.13 19.65 91.8 19.64 101.46 C19.63 121.35 19.61 141.24 19.59 161.13 C15.84 161.02 12.09 160.89 8.34 160.76 C7.28 160.73 6.21 160.7 5.12 160.66 C3.58 160.61 3.58 160.61 2.01 160.55 C1.07 160.52 0.13 160.48 -0.84 160.45 C-3.41 160.13 -3.41 160.13 -7.41 158.13 C-7.41 106.32 -7.41 54.51 -7.41 1.13 C-4.81 -0.16 -2.9 0 0 0 Z " fill="#E10D12" transform="translate(825.41015625,270.8671875)"/>
</svg>
